<svg width="70" height="70" viewBox="0 0 70 70" fill="none" xmlns="http://www.w3.org/2000/svg">
<path d="M52 0H18C8.05887 0 0 8.05887 0 18V52C0 61.9411 8.05887 70 18 70H52C61.9411 70 70 61.9411 70 52V18C70 8.05887 61.9411 0 52 0Z" fill="black"/>
<path d="M52 0H18C8.05887 0 0 8.05887 0 18V52C0 61.9411 8.05887 70 18 70H52C61.9411 70 70 61.9411 70 52V18C70 8.05887 61.9411 0 52 0Z" fill="black"/>
<path fill-rule="evenodd" clip-rule="evenodd" d="M32.8877 15.2625C33.9253 14.9125 35.0749 14.9125 36.1122 15.2625L57.1387 22.3562C60.9538 23.6433 60.9538 28.3567 57.1387 29.6437L36.1122 36.7375C35.0749 37.0875 33.9253 37.0875 32.8877 36.7375L11.8613 29.6437C8.04624 28.3567 8.04624 23.6433 11.8613 22.3562L32.8877 15.2625Z" fill="white"/>
<path d="M57.1387 38.5553L36.1122 45.7343C35.0748 46.0886 33.9253 46.0886 32.8876 45.7343L11.8613 38.5553C9.5878 37.7791 8.66914 35.7713 9.10532 34L34.1617 42.555C34.2576 42.5877 34.3578 42.6063 34.4588 42.6103C34.4818 42.6117 34.505 42.6119 34.528 42.611C34.6354 42.6085 34.7425 42.5898 34.8445 42.555L59.8951 34.0018C60.3302 35.7729 59.4115 37.7794 57.1387 38.5553Z" fill="white"/>
<path d="M57.1387 47.5553L36.1122 54.7343C35.0748 55.0886 33.9253 55.0886 32.8876 54.7343L11.8613 47.5553C9.5878 46.7791 8.66914 44.7713 9.10532 43L34.1617 51.555C34.2576 51.5877 34.3578 51.6063 34.4588 51.6103C34.4818 51.6117 34.505 51.6119 34.528 51.611C34.6354 51.6085 34.7425 51.5898 34.8445 51.555L59.8951 43.0018C60.3302 44.7729 59.4115 46.7794 57.1387 47.5553Z" fill="white"/>
</svg>
