<svg width="70" height="70" viewBox="0 0 70 70" fill="none" xmlns="http://www.w3.org/2000/svg">
<path d="M52 0H18C8.05887 0 0 8.05887 0 18V52C0 61.9411 8.05887 70 18 70H52C61.9411 70 70 61.9411 70 52V18C70 8.05887 61.9411 0 52 0Z" fill="white"/>
<path d="M52 0H18C8.05887 0 0 8.05887 0 18V52C0 61.9411 8.05887 70 18 70H52C61.9411 70 70 61.9411 70 52V18C70 8.05887 61.9411 0 52 0Z" fill="white"/>
<path d="M52.5 44.8871L36.4525 52.1671C35.9965 52.3751 35.5012 52.4828 35 52.4828C34.4988 52.4828 34.0035 52.3751 33.5475 52.1671L17.5 44.8871M52.5 36.1371L36.4525 43.4171C35.9965 43.6251 35.5012 43.7328 35 43.7328C34.4988 43.7328 34.0035 43.6251 33.5475 43.4171L17.5 36.1371M36.4525 17.8146C35.9965 17.6067 35.5012 17.499 35 17.499C34.4988 17.499 34.0035 17.6067 33.5475 17.8146L18.55 24.6396C18.2395 24.7766 17.9754 25.0008 17.7901 25.2851C17.6047 25.5694 17.506 25.9015 17.506 26.2409C17.506 26.5803 17.6047 26.9123 17.7901 27.1967C17.9754 27.481 18.2395 27.7052 18.55 27.8421L33.565 34.6846C34.021 34.8926 34.5163 35.0003 35.0175 35.0003C35.5187 35.0003 36.014 34.8926 36.47 34.6846L51.485 27.8596C51.7955 27.7227 52.0596 27.4985 52.2449 27.2142C52.4303 26.9298 52.529 26.5978 52.529 26.2584C52.529 25.919 52.4303 25.5869 52.2449 25.3026C52.0596 25.0183 51.7955 24.7941 51.485 24.6571L36.4525 17.8146Z" stroke="black" stroke-width="2" stroke-linecap="round" stroke-linejoin="round"/>
</svg>
